<svg xmlns="http://www.w3.org/2000/svg" width="24" height="24" viewBox="0 0 24 24">
    <path fill="#3b28c9" fill-rule="nonzero" d="M20 3.5v5.26a3 3 0 0 1-.88 2.12l-1.83 1.83a1 1 0 0 0-.29.7v7.09a.5.5 0 0 1-.5.5h-2a.5.5 0 0 1-.5-.5v-4.09a1 1 0 0 0-.29-.7l-.42-.42a1 1 0 0 0-.7-.29h-1.18a1 1 0 0 0-.7.29l-.42.42a1 1 0 0 0-.29.7v4.09a.5.5 0 0 1-.5.5h-2a.5.5 0 0 1-.5-.5v-7.09a1 1 0 0 0-.29-.7l-1.83-1.83A3 3 0 0 1 4 8.76V3.5a.5.5 0 0 1 .5-.5h2a.5.5 0 0 1 .5.5v2a.5.5 0 0 0 .5.5h2a.5.5 0 0 0 .5-.5v-2a.5.5 0 0 1 .5-.5h3a.5.5 0 0 1 .5.5v2a.5.5 0 0 0 .5.5h2a.5.5 0 0 0 .5-.5v-2a.5.5 0 0 1 .5-.5h2a.5.5 0 0 1 .5.5z"/>
</svg>
