<svg xmlns="http://www.w3.org/2000/svg" width="97" height="49" viewBox="0 0 97 49">
    <g fill="none" fill-rule="nonzero">
        <path fill="#1B1B1B" d="M77.84 31.85v16.767h-4.694v-2.81h-.158C72.417 47.498 71.053 49 68.325 49c-3.394 0-5.202-2.395-5.202-6.611l.021-1.883 4.701-1.577v.705h-.028v2.34c0 2.044.667 3.193 2.38 3.193 1.458 0 2.95-.83 2.95-2.427V31.85h4.693zm10.023-.384c3.49 0 5.107.958 6.788 2.619l-2.696 2.779c-1.047-1.054-2.442-1.725-3.838-1.725-1.586 0-2.22.575-2.22 1.405 0 .894.38 1.373 1.744 1.565l1.872.256c3.616.479 5.487 2.14 5.487 5.046C95 46.637 92.145 49 87.863 49c-3.203 0-5.297-1.086-7.01-3.002l2.76-2.81c1.174 1.309 2.601 2.14 4.409 2.14 1.84 0 2.474-.608 2.474-1.598 0-.83-.507-1.245-1.681-1.405l-1.808-.224c-3.774-.479-5.614-2.14-5.614-5.174 0-3.225 2.506-5.461 6.47-5.461zm-55.32-8.983c4.884 0 7.803 3.354 7.803 8.751 0 5.398-2.919 8.783-7.803 8.783-4.885 0-7.803-3.385-7.803-8.783 0-5.397 2.918-8.75 7.803-8.75zm30.322 0c3.204 0 4.98 2.428 4.98 6.644v4.811l-4.695 1.575.001-6.003c0-2.172-.73-3.194-2.284-3.194-1.395 0-2.76.798-2.76 2.46v10.858h-4.694V29.51c0-2.172-.76-3.194-2.283-3.194-1.364 0-2.76.798-2.76 2.46v10.858h-4.694V22.867h4.694v2.842h.19c.603-1.788 1.999-3.226 4.473-3.226 2.284 0 3.933 1.182 4.662 3.386h.096c.602-1.884 2.537-3.386 5.074-3.386zM10.372 16v3.673h-3.33v3.194h3.33v3.673h-3.33v13.094H2.346V26.54H0v-3.673h2.347v-1.98C2.347 17.66 4.092 16 7.327 16h3.045zm7.295 6.867v3.64h.159c.38-1.852 1.649-3.64 4.25-3.64h.825v4.407h-1.174c-2.728 0-4.06.607-4.06 2.555v9.805h-4.694V22.867h4.694zm14.876 3.353c-1.84 0-2.918 1.214-2.918 3.322v3.417c0 2.108 1.078 3.322 2.918 3.322s2.918-1.214 2.918-3.322v-3.417c0-2.108-1.078-3.322-2.918-3.322z"/>
        <path fill="#3B28C9" d="M97 15.6a8.4 8.4 0 0 1-8.4 8.4H73V8.4a8.4 8.4 0 0 1 16.726-1.125A8.402 8.402 0 0 1 97 15.6zM88.6 20a4.4 4.4 0 1 0-.003-8.8l-2.794-.003-.002-1.995L85.8 8.4a4.4 4.4 0 1 0-8.8 0V20h11.6z"/>
    </g>
</svg>
